<svg id="Layer_1" data-name="Layer 1" xmlns="http://www.w3.org/2000/svg" viewBox="0 0 30 30"><defs><style>.cls-1{fill:#fff;}</style></defs><title>Full white</title><path class="cls-1" d="M2.78,9.05H.5v2.29H2.78Z"/><path class="cls-1" d="M2.73,21V12.73H.57V21ZM17.09,21V19a4.17,4.17,0,0,1-.78-.05.86.86,0,0,1-.51-.22.9.9,0,0,1-.23-.49,5.56,5.56,0,0,1-.05-.8V14.58h1.57V12.73H15.52V9.52H13.35v8a7.43,7.43,0,0,0,.17,1.7,2.48,2.48,0,0,0,.58,1.09,2.35,2.35,0,0,0,1.05.59A6.44,6.44,0,0,0,16.8,21ZM29.5,21V8.88H27.33V21ZM11.26,13.53a3.25,3.25,0,0,0-2.51-1,3.23,3.23,0,0,0-1.43.32,3.14,3.14,0,0,0-1.07.88l-.12.15V12.73H4V21H6.15V16.72A2.47,2.47,0,0,1,6.71,15a1.89,1.89,0,0,1,1.38-.59A1.79,1.79,0,0,1,9.51,15,2.4,2.4,0,0,1,10,16.58h0v4.35h2.19V16.28A3.93,3.93,0,0,0,11.26,13.53Zm15,3.29a4.63,4.63,0,0,0-.31-1.67A4.35,4.35,0,0,0,25,13.8a3.93,3.93,0,0,0-1.34-.91A4.36,4.36,0,0,0,22,12.56a4.26,4.26,0,0,0-1.67.34,4.11,4.11,0,0,0-1.36.91A4.23,4.23,0,0,0,18,15.16a4.1,4.1,0,0,0-.33,1.68A4.43,4.43,0,0,0,18,18.51a4.33,4.33,0,0,0,.89,1.36,4.11,4.11,0,0,0,1.37.91,4.88,4.88,0,0,0,5.42-1.28l-1.56-1.19a2.83,2.83,0,0,1-2.08.92,2.46,2.46,0,0,1-1.49-.42,2,2,0,0,1-.78-1.15l0-.07h6.46Zm-6.44-.76A2,2,0,0,1,22,14.41a2,2,0,0,1,2.18,1.65Z"/></svg>